 <svg
              width="24"
              height="17"
              viewBox="0 0 24 17"
              fill="none"
              xmlns="http://www.w3.org/2000/svg"
            >
              <path
                d="M12.2451 12.0552C12.5833 12.0552 12.8386 11.9369 13.0259 11.6935C13.2185 11.4431 13.3161 11.1108 13.3161 10.7058V9.70713C13.3161 9.30997 13.2174 8.98165 13.0226 8.73134C12.8328 8.48751 12.5773 8.36902 12.2414 8.36902C11.9062 8.36902 11.6548 8.48642 11.4727 8.72787C11.2846 8.9773 11.1892 9.30676 11.1892 9.70718V10.7058C11.1892 11.1111 11.2858 11.4436 11.4762 11.6941C11.6607 11.9371 11.9123 12.0552 12.2451 12.0552Z"
                fill="#010101"
              />
              <path
                d="M20.7569 7.93275C20.9291 7.38807 21.0161 6.82234 21.0161 6.24692C21.0161 3.16094 18.5055 0.65033 15.4196 0.65033C13.5478 0.65033 11.7855 1.60471 10.7542 3.15882C9.96118 2.59263 9.00229 2.28354 8.02417 2.28354C5.43358 2.28354 3.32598 4.39114 3.32598 6.98179C3.32598 7.28891 3.35578 7.59468 3.41472 7.89418C1.44982 8.29497 0 10.0474 0 12.0783C0 14.4336 1.91612 16.3497 4.27134 16.3497H19.7287C22.0839 16.3497 24 14.4335 24 12.0783C24 10.0979 22.6529 8.39895 20.7569 7.93275ZM9.10648 9.34877L9.0632 9.47903H7.7679V9.34944C7.7679 9.02174 7.6915 8.77086 7.54076 8.6037C7.3935 8.44047 7.15278 8.35769 6.82523 8.35769C6.53693 8.35769 6.3144 8.47157 6.1449 8.70586C5.9683 8.94979 5.87878 9.26873 5.87878 9.65392V10.7515C5.87878 11.1405 5.97276 11.4611 6.15812 11.7047C6.33768 11.9406 6.57441 12.0553 6.88184 12.0553C7.18642 12.0553 7.41112 11.9765 7.54962 11.8211C7.69191 11.6615 7.76407 11.4129 7.76407 11.0824V10.9528H9.05553L9.09891 11.083L9.09922 11.1029C9.10985 11.7298 8.91376 12.2362 8.51639 12.6079C8.12204 12.9769 7.57207 13.164 6.88179 13.164C6.18642 13.164 5.61277 12.9361 5.17663 12.4866C4.74148 12.0383 4.52087 11.4553 4.52087 10.754V9.66289C4.52087 8.96493 4.73593 8.38246 5.16015 7.93176C5.58654 7.47878 6.14672 7.2491 6.82518 7.2491C7.5348 7.2491 8.10021 7.43638 8.50566 7.8058C8.91516 8.17896 9.11737 8.69145 9.10674 9.32902L9.10648 9.34877ZM14.6778 10.7011C14.6778 11.4073 14.4502 12.0003 14.0013 12.4638C13.5514 12.9284 12.9605 13.1639 12.2451 13.1639C11.5345 13.1639 10.948 12.9282 10.5018 12.4634C10.0569 12 9.83134 11.4071 9.83134 10.7011V9.71187C9.83134 9.00852 10.0561 8.41631 10.4996 7.95172C10.9446 7.48546 11.5306 7.24899 12.2413 7.24899C12.9566 7.24899 13.5481 7.48521 13.9995 7.95104C14.4496 8.41579 14.6778 9.00821 14.6778 9.71187V10.7011ZM19.5239 13.0846H15.5119V12.1828L17.325 10.2389C17.5712 9.95637 17.7498 9.71363 17.8529 9.5206C17.9505 9.33788 18 9.16849 18 9.01718C18 8.81539 17.9489 8.65693 17.8437 8.53263C17.7441 8.41491 17.6029 8.35769 17.4122 8.35769C17.1987 8.35769 17.0428 8.42569 16.9355 8.5656C16.8218 8.714 16.7641 8.91932 16.7641 9.17574V9.30533H15.469L15.4256 9.17579L15.4251 9.15636C15.4116 8.62635 15.5886 8.17098 15.9513 7.803C16.3135 7.43539 16.805 7.24899 17.4122 7.24899C18.0092 7.24899 18.4875 7.40901 18.8341 7.72453C19.1841 8.04326 19.3616 8.47183 19.3616 8.99826C19.3616 9.35442 19.2625 9.68751 19.0669 9.98825C18.8812 10.2739 18.5725 10.6512 18.1493 11.1099L17.3538 11.976H19.5239V13.0846H19.5239Z"
                fill="#010101"
              />
            </svg>