<svg width="31" height="24" viewBox="0 0 31 24" fill="none" xmlns="http://www.w3.org/2000/svg">
<path d="M28.288 12.8272V15.5784C28.288 16.8947 27.2208 17.9621 25.9041 17.9621H5.10947C3.79299 17.9621 2.72559 16.8949 2.72559 15.5784V12.8272C2.72559 12.441 2.83692 12.0631 3.04638 11.7386L6.716 4.63036C7.09965 4.03571 7.75878 3.67651 8.46638 3.67651H22.5472C23.2548 3.67651 23.9141 4.03571 24.2976 4.63036L27.9672 11.7388C28.1765 12.0633 28.2878 12.4412 28.2878 12.8274L28.288 12.8272Z" stroke="#0E5F12" stroke-linecap="round" stroke-linejoin="round"/>
<path d="M24.6283 11.0777H6.38525L8.30647 6.51734C8.60263 6.03303 9.09939 5.7428 9.63122 5.7428H21.3826C21.9144 5.7428 22.4112 6.03303 22.7073 6.51734L24.6285 11.0777H24.6283Z" stroke="#0E5F12" stroke-linecap="round" stroke-linejoin="round"/>
<path d="M8.22974 12.7367L9.27389 14.0166H15.5069" stroke="#0E5F12" stroke-linecap="round" stroke-linejoin="round"/>
<path d="M22.784 12.7368L21.7397 14.0168H15.5068" stroke="#0E5F12" stroke-linecap="round" stroke-linejoin="round"/>
<path d="M10.0735 15.6727H20.9401" stroke="#0E5F12" stroke-linecap="round" stroke-linejoin="round"/>
<path d="M26.3863 12.7346V14.7494H23.7366L24.3314 13.7406L26.3863 12.7346Z" stroke="#0E5F12" stroke-linecap="round" stroke-linejoin="round"/>
<path d="M4.62769 12.7347V14.7495H7.27741L6.68263 13.7408L4.62769 12.7347Z" stroke="#0E5F12" stroke-linecap="round" stroke-linejoin="round"/>
<path d="M30.2239 9.8822V10.3288C30.2239 10.7371 29.9498 11.0681 29.6114 11.0681H27.6211L28.3329 9.94763L29.4409 9.29258C29.8022 9.07896 30.2239 9.39663 30.2239 9.8822Z" stroke="#0E5F12" stroke-linecap="round" stroke-linejoin="round"/>
<path d="M0.776123 9.8822V10.3288C0.776123 10.7371 1.05026 11.0681 1.38864 11.0681H3.37894L2.66709 9.94763L1.55912 9.29258C1.19787 9.07896 0.776123 9.39663 0.776123 9.8822Z" stroke="#0E5F12" stroke-linecap="round" stroke-linejoin="round"/>
<path d="M23.515 20.3223C23.0905 20.3223 22.7466 19.9782 22.7466 19.5539V17.962" stroke="#0E5F12" stroke-linecap="round" stroke-linejoin="round"/>
<path d="M26.1454 17.9507V19.5544C26.1454 19.9789 25.8013 20.3228 25.377 20.3228" stroke="#0E5F12" stroke-linecap="round" stroke-linejoin="round"/>
<path d="M5.63706 20.3228C5.21255 20.3228 4.86865 19.9787 4.86865 19.5544V17.9507" stroke="#0E5F12" stroke-linecap="round" stroke-linejoin="round"/>
<path d="M8.26743 17.962V19.5539C8.26743 19.9784 7.92333 20.3223 7.49902 20.3223" stroke="#0E5F12" stroke-linecap="round" stroke-linejoin="round"/>
<path d="M8.59302 11.0782C8.94731 10.2213 9.79146 9.61816 10.7765 9.61816C11.7615 9.61816 12.6055 10.2215 12.9596 11.0782" stroke="#0E5F12" stroke-linecap="round" stroke-linejoin="round"/>
<path d="M10.7766 9.61778C11.5502 9.61778 12.1774 8.99065 12.1774 8.21703C12.1774 7.44342 11.5502 6.81628 10.7766 6.81628C10.0029 6.81628 9.37573 7.44342 9.37573 8.21703C9.37573 8.99065 10.0029 9.61778 10.7766 9.61778Z" stroke="#0E5F12" stroke-linecap="round" stroke-linejoin="round"/>
<path d="M13.3164 11.0781C13.6707 10.2212 14.5149 9.61804 15.4999 9.61804C16.4849 9.61804 17.3289 10.2214 17.683 11.0781" stroke="#0E5F12" stroke-linecap="round" stroke-linejoin="round"/>
<path d="M15.5 9.61766C16.2736 9.61766 16.9008 8.99052 16.9008 8.21691C16.9008 7.4433 16.2736 6.81616 15.5 6.81616C14.7263 6.81616 14.0991 7.4433 14.0991 8.21691C14.0991 8.99052 14.7263 9.61766 15.5 9.61766Z" stroke="#0E5F12" stroke-linecap="round" stroke-linejoin="round"/>
<path d="M18.0396 11.0781C18.3938 10.2212 19.238 9.61804 20.223 9.61804C21.2081 9.61804 22.0524 10.2214 22.4065 11.0781" stroke="#0E5F12" stroke-linecap="round" stroke-linejoin="round"/>
<path d="M20.2233 9.61766C20.997 9.61766 21.6242 8.99052 21.6242 8.21691C21.6242 7.4433 20.997 6.81616 20.2233 6.81616C19.4497 6.81616 18.8225 7.4433 18.8225 8.21691C18.8225 8.99052 19.4497 9.61766 20.2233 9.61766Z" stroke="#0E5F12" stroke-linecap="round" stroke-linejoin="round"/>
<path d="M28.9221 20.3235H2.09106" stroke="#0E5F12" stroke-linecap="round" stroke-linejoin="round"/>
</svg>
